<?xml version='1.0' encoding='utf-8'?>
<svg xmlns="http://www.w3.org/2000/svg" version="1.1" width="1080px" height="2132px" viewBox="0 0 1080 2132"> <g id="layer1"> <g style="fill:rgb(220,246,255); fill-opacity:1.0; stroke-linejoin: miter"> <path d="M21.999,616.4397C21.85066,616.4397,21.708395,616.4986,21.603502,616.6035C21.49861,616.70844,21.43968,616.8507,21.43968,616.999L21.44068,1313.0C21.44068,1313.309,21.691097,1313.5593,22.0,1313.5593L996.001,1313.5603C996.1493,1313.5603,996.29156,1313.5013,996.3965,1313.3965C996.5014,1313.2916,996.5603,1313.1493,996.5603,1313.001L996.5593,617.0C996.5593,616.6911,996.3089,616.4407,996.0,616.4407L21.999,616.4397 Z"/> </g> <g style="fill:rgb(5,38,55); fill-opacity:0.44705883; stroke-linejoin: miter"> <path d="M878.664,1207.5143L875.50446,1207.9314Q870.5125,1208.2115,861.24744,1208.4668Q834.3458,1209.083,823.8378,1209.1763Q792.4885,1209.6119,744.04675,1209.9479Q733.0555,1210.0596,666.5508,1210.3517Q611.99963,1210.5543,549.7497,1210.5797Q468.9076,1210.5779,454.73505,1210.5067Q381.84552,1210.3152,370.63574,1210.2313Q318.77975,1209.9908,278.15103,1209.5984Q236.1638,1209.1924,213.08487,1208.7046Q204.26112,1208.5941,190.09848,1207.9393Q177.02443,1207.0681,214.16936,1206.3127Q236.97246,1205.8271,276.86807,1205.4414Q330.68625,1204.9784,345.90634,1204.9237Q396.60803,1204.6324,455.00858,1204.5186Q529.69336,1204.4149,546.94,1204.4474Q613.3179,1204.4767,667.818,1204.6865Q695.1494,1204.7877,719.674,1204.927Q778.5295,1205.3083,786.9324,1205.43Q828.1111,1205.8273,851.464,1206.3176Q877.21027,1206.8295,878.66406,1207.5143"/> </g> <g style="fill:rgb(253,189,153); fill-opacity:1.0; stroke-linejoin: miter"> <path d="M654.96735,956.84064L653.4835,955.0283Q646.7954,946.832,643.55707,944.00604Q639.4599,940.31335,636.9254,940.4284Q635.63837,940.5017,635.1185,940.7947Q634.431,941.0931,633.84296,941.5853Q632.07153,943.1562,631.2612,945.62646Q629.60175,951.35406,632.43353,955.273Q633.52954,956.80255,635.5424,957.33936Q636.9836,957.7813,640.56696,957.4012L649.92804,964.6956L654.96735,956.84064 Z"/> </g> <g style="fill:rgb(0,0,0); fill-opacity:1.0; stroke-linejoin: miter"> <path d="M736.3153,866.54254Q739.82684,866.2104,742.5302,867.4617Q743.8127,868.0116,745.5686,869.0708Q752.279,873.142,753.10266,873.83356Q759.02405,877.92883,759.89813,883.4419Q761.2537,891.1947,756.6332,900.6762Q753.0308,908.26196,745.19604,912.6217L727.88684,879.1982L726.05914,874.38776Q723.7682,872.73364,723.6828,871.69604Q723.435,869.9629,726.15515,868.87036Q731.33105,867.0959,736.2751,866.5456 Z"/> </g> <g style="fill:rgb(253,189,153); fill-opacity:1.0; stroke-linejoin: miter"> <path d="M727.4613,876.4077L729.4414,876.66547L735.8289,879.3131Q735.30237,882.3165,736.3616,883.22955Q736.7677,883.6376,737.3881,883.87933Q740.93494,884.8871,741.3902,885.23846Q742.5657,885.8683,743.1131,886.8013Q743.90515,888.0144,743.76306,890.67365Q743.81934,892.1429,742.1842,900.1179Q742.00806,901.4755,742.3574,901.7523Q742.75836,902.19653,744.63995,900.4227Q744.3027,896.66956,746.21375,895.99756Q747.9199,895.307,749.7137,895.7606Q751.3814,896.2647,751.6634,897.5536Q752.3405,899.4175,748.7077,906.67993Q750.7925,907.5515,750.6604,908.2113Q750.7754,908.7756,749.5208,910.5812L748.1496,916.1182L749.30225,919.73914L739.389,931.96466L726.9829,921.85065L727.5051,915.2763Q726.98804,916.26776,719.9142,915.7424Q717.30865,915.4388,717.01013,913.7612L716.60614,910.1548L717.1214,905.44366L718.8698,900.19763Q714.7229,898.59625,714.71674,895.756Q714.7943,895.4081,715.2698,895.1232Q716.14215,894.9253,718.3052,893.77844Q720.1993,891.78253,720.91315,890.6577Q721.74536,889.39154,722.1393,887.9377Q722.47144,886.9642,722.8916,883.34344Q723.06525,882.5116,723.3913,881.81177Q724.0754,880.19666,727.4142,876.4618 Z"/> </g> <g style="fill:rgb(255,255,255); fill-opacity:1.0; stroke-linejoin: miter"> <path d="M726.5346,919.0765L738.927,923.11456L749.4862,918.2703L764.09467,928.66486L765.91144,992.8113L752.8241,1033.2775L730.3527,1037.1938L701.4755,1021.46655L708.52325,951.70734L720.01764,925.4175L726.5081,919.1019 Z"/> </g> <g style="fill:rgb(24,71,115); fill-opacity:1.0; stroke-linejoin: miter"> <path d="M737.42444,924.44293L740.45416,928.76965L737.9781,932.1535L735.3059,1006.42834L729.6397,1014.16284L722.548,1008.95386L734.5904,932.1145L733.5728,927.4896L737.3879,924.4719 Z"/> </g> <g style="fill:rgb(0,0,0); fill-opacity:1.0; stroke-linejoin: miter"> <path d="M759.9911,1141.5609Q770.8615,1140.7697,772.33954,1140.9982L773.24585,1150.0352L768.74164,1150.8226Q770.3607,1159.2781,771.73016,1162.9564Q772.37274,1164.7559,773.097,1166.1711L776.14386,1171.662Q776.7081,1172.8236,776.9648,1173.8962Q777.72375,1176.491,775.7926,1180.5034Q775.9335,1180.8162,768.86694,1192.0203Q767.69885,1193.684,766.2018,1192.7085Q764.62445,1191.5276,764.4301,1189.5342Q764.376,1188.9086,764.5568,1187.9823Q765.6451,1184.0079,765.60547,1183.4888Q765.7602,1182.1497,765.4255,1180.6003Q765.03534,1178.1777,761.6369,1171.4884Q760.3347,1169.1044,758.8577,1168.1385Q758.2767,1167.7308,757.55975,1167.3606Q754.3106,1165.8464,753.58716,1165.3997Q752.1842,1164.6202,749.76215,1163.057L759.97235,1141.6003 Z"/> </g> <g style="fill:rgb(14,7,1); fill-opacity:1.0; stroke-linejoin: miter"> <path d="M738.98267,1171.2987L749.0807,1179.3081Q751.0574,1183.9949,751.9179,1190.2465Q752.8631,1197.1038,752.13776,1200.8224Q751.2311,1206.1031,745.43427,1208.0514Q741.93964,1209.2161,739.1718,1208.768Q736.9778,1208.3887,736.14667,1206.3923Q734.81506,1203.7683,735.61633,1194.4275Q735.9377,1190.2916,737.0305,1181.1802L738.9816,1171.3059 Z"/> </g> <g style="fill:rgb(255,255,255); fill-opacity:0.99607843; stroke-linejoin: miter"> <path d="M725.6122,888.20483L725.6122,888.20557L725.2129,890.1292Q726.9832,890.1804,728.75336,890.23145L725.6122,888.20483 Z"/> </g> <g style="fill:rgb(0,0,0); fill-opacity:0.99607843; stroke-linejoin: miter"> <path d="M725.6724,888.1936L725.6108,888.2616Q725.4191,888.46387,725.2735,888.67975Q725.16425,888.8632,725.15533,888.9035Q725.12463,888.9798,725.10785,889.0607Q725.09076,889.14215,725.08795,889.22687L725.0883,889.31287Q725.0914,889.3991,725.10474,889.4885Q725.1353,889.71155,725.2683,890.1351L726.1787,889.3873L725.6724,888.1936 Z"/> </g> <g style="fill:rgb(0,0,0); fill-opacity:0.99607843; stroke-linejoin: miter"> <path d="M735.6697,875.27875L735.6697,875.27936L735.6697,875.27875L735.6697,875.27936 Z"/> </g> <g style="fill:rgb(134,54,8); fill-opacity:0.99607843; stroke-linejoin: miter"> <path d="M725.81995,886.7712L726.0525,886.78674Q726.7553,886.8291,727.3966,886.91595Q728.09814,887.0271,728.4031,887.1535Q728.7378,887.2733,729.10474,887.52527Q729.1654,887.56146,729.4229,887.7737Q729.57654,887.90173,729.9041,888.22266L725.81995,886.7712 Z"/> </g> <g style="fill:rgb(134,54,8); fill-opacity:0.99607843; stroke-linejoin: miter"> <path d="M729.9144,881.66614L729.9144,881.667L729.91394,881.6678L729.9144,881.66614 Z"/> </g> <g style="fill:rgb(255,255,255); fill-opacity:0.99607843; stroke-linejoin: miter"> <path d="M717.645,903.87354L717.3281,904.8241Q719.2231,904.8092,722.55817,904.58685Q720.5163,904.4532,719.5182,904.30615Q718.53546,904.14746,718.38055,904.09326Q718.02734,904.008,717.71826,903.89874Q717.6877,903.8879,717.6575,903.87634Q717.65344,903.8749,717.64923,903.87335 Z"/> </g> <g style="fill:rgb(253,189,153); fill-opacity:1.0; stroke-linejoin: miter"> <path d="M635.00586,941.01654L635.58484,941.57513Q637.3826,943.2376,638.6277,945.02765Q639.02216,945.62915,639.2938,946.25836L639.5273,946.8969L639.68353,947.5532L639.75525,948.2285Q639.7834,949.9392,638.912,951.85724Q637.8199,954.2516,635.6575,957.47675L632.4141,951.34656L635.00586,941.01654 Z"/> </g> <g style="fill:rgb(0,0,0); fill-opacity:1.0; stroke-linejoin: miter"> <path d="M638.4577,968.2154L640.8866,949.5353L633.10876,948.22546L629.60956,966.4433L638.45276,968.21436"/> </g> <g style="fill:rgb(0,0,0); fill-opacity:1.0; stroke-linejoin: miter"> <path d="M639.187,992.25244L640.16595,968.0634L628.523,965.3025L628.48096,965.30084L621.60156,990.97284L639.16864,992.25146"/> </g> <g style="fill:rgb(0,0,0); fill-opacity:1.0; stroke-linejoin: miter"> <path d="M596.6755,1207.3754L602.55945,1195.6005L594.97473,1194.3385L596.67444,1207.37"/> </g> <g style="fill:rgb(105,210,244); fill-opacity:1.0; stroke-linejoin: miter"> <path d="M602.5927,1198.0479L617.344,1146.0356L597.61536,1142.9904L594.05524,1196.5222L594.0685,1196.5991L602.5299,1198.0376"/> </g> <g style="fill:rgb(0,0,0); fill-opacity:1.0; stroke-linejoin: miter"> <path d="M617.1552,1147.8983L641.108,991.1258L621.98315,988.2045L620.7599,988.0173L620.7139,988.2746L596.80225,1144.7588L617.1427,1147.8966"/> </g> <g style="fill:rgb(0,0,0); fill-opacity:1.0; stroke-linejoin: miter"> <path d="M603.1396,1047.9373L604.89136,1048.1995L606.64343,1048.4615Q611.15424,1018.3622,615.6648,988.2625Q613.91315,987.9994,612.1612,987.73694Q607.6504,1017.8369,603.1396,1047.9373"/> </g> <g style="fill:rgb(0,0,0); fill-opacity:1.0; stroke-linejoin: miter"> <path d="M611.5809,996.01025L619.042,997.12854L626.5036,998.24646Q626.7909,996.3274,627.0786,994.40857Q619.61755,993.2898,612.1563,992.17126Q611.86884,994.09094,611.5809,996.01025"/> </g> <g style="fill:rgb(24,71,115); fill-opacity:1.0; stroke-linejoin: miter"> <path d="M726.58466,1074.8143L720.02124,1106.7247L736.7856,1116.8228L733.6067,1077.6354L731.5007,1052.3312 M727.0716,920.9549L727.0716,920.9556L727.0716,920.95654L727.07184,920.9556L727.07184,920.956L726.071,931.73395L723.0525,964.2466L719.67957,1015.3323C723.9863,1016.42566,725.49976,1019.7224,742.799,1019.0305L758.9879,1019.4087L769.5205,1016.5425L759.0372,1070.7091C757.18414,1100.8704,756.68274,1123.8389,757.53284,1139.616L761.13434,1141.5652C756.3834,1159.1498,753.27576,1171.8229,751.8103,1179.5854C749.15674,1182.624,743.93805,1182.2236,736.15497,1178.3843C733.5224,1170.2311,733.86475,1161.1067,737.1829,1151.0118L733.0399,1145.5814L700.60645,1119.5365L695.73126,1112.5181C693.7632,1110.0018,694.73755,1085.9456,698.6528,1040.3512L688.164,1036.2357L701.4295,969.14594C700.84045,968.8254,694.9961,974.61414,683.8962,986.5115L677.351,988.4314C657.91626,975.3929,646.85364,967.18024,644.1632,963.7936L648.1652,958.3405L652.90753,951.0406L675.911,968.78314C685.1808,962.5242,694.0863,948.34485,702.62744,926.24506C716.7313,921.812,724.7838,919.3755,726.7839,918.93555L727.0716,920.9549L727.07184,920.9556L727.0716,920.9549L727.0716,920.9556 Z"/> </g> <g style="fill:rgb(255,255,255); fill-opacity:1.0; stroke-linejoin: miter"> <path d="M771.96814,1009.89526L775.6716,1009.8069L780.104,1008.34607L787.1198,1017.61633L782.991,1017.79395L781.11554,1016.9048L773.6891,1019.45996L771.9684,1009.8988 Z"/> </g> <g style="fill:rgb(24,71,115); fill-opacity:1.0; stroke-linejoin: miter"> <path d="M748.8904,918.0994L755.1571,921.533L779.4334,929.59735L788.3669,943.2637L804.59534,959.8724L811.8416,968.8162C812.89166,971.1082,813.4764,973.1872,813.68475,975.04315C814.1224,978.9372,812.50507,983.86163,808.89154,989.91437C805.3406,995.8612,798.1198,1005.8286,787.08264,1019.729L775.5231,1006.91626L782.2079,1002.04236L790.338,991.89716L797.798,978.9083L781.07086,961.504L777.08765,957.02L768.94653,1013.07605L757.20886,1011.526L744.4139,1023.9319L747.3399,974.8532L748.07764,948.12634L748.90295,918.2245 Z"/> </g> <g style="fill:rgb(253,189,153); fill-opacity:1.0; stroke-linejoin: miter"> <path d="M746.7196,1012.80347Q751.9424,1008.60815,754.84326,1007.5801Q757.82056,1006.3696,761.52234,1007.09973Q763.86224,1007.50525,768.51825,1009.2953L774.4567,1009.79297L776.65985,1018.45874L764.6864,1024.1282L752.48596,1024.9226L747.30945,1019.7284L746.72156,1012.82166 Z"/> </g> <g style="fill:rgb(24,71,115); fill-opacity:1.0; stroke-linejoin: miter"> <path d="M768.1795,1023.2412L769.0439,1034.6859L768.9035,1045.0109L748.7761,1043.1195L768.161,1023.26 Z"/> </g> <g style="fill:rgb(125,53,7); fill-opacity:0.07450981; stroke-linejoin: miter"> <path d="M763.42175,1005.8612Q762.8423,1006.2921,766.85065,1008.1968L763.9663,1006.6238L769.4841,1009.3762L774.4567,1009.79297L774.46796,1009.8357L775.6716,1009.8069L777.5672,1009.1821L775.5231,1006.91626L779.95526,1003.6848L779.95636,1003.68555Q781.7492,1005.8463,783.8113,1009.8855L778.11017,1012.6793L746.79376,1015.17224L746.7913,1013.0115L749.0897,1007.9331Q751.312,1008.74695,750.63617,1008.9602Q757.3771,1006.5823,759.2485,1003.77905L761.41547,1005.0504 Z"/> </g> <g style="fill:rgb(0,75,112); fill-opacity:1.0; stroke-linejoin: miter"> <path d="M252.29933,757.78406L414.47058,758.081L576.6416,758.3787Q576.2313,982.75305,575.8219,1207.1295Q413.65015,1206.8324,251.47859,1206.5372Q251.88902,982.1598,252.29933,757.78406"/> </g> <g style="fill:rgb(245,245,245); fill-opacity:1.0; stroke-linejoin: miter"> <path d="M287.07477,1165.2623C274.92154,1165.2394,265.08032,1155.3627,265.10248,1143.204L265.74658,790.93085C265.76907,778.77325,275.64627,768.93677,287.7996,768.95905L541.0029,769.42084C553.16113,769.44476,562.9966,779.3163,562.9741,791.47437L562.47723,1063.8065L456.16605,1165.571L287.07474,1165.2609 Z"/> </g> <g style="fill:rgb(0,20,30); fill-opacity:1.0; stroke-linejoin: miter"> <path d="M318.72803,735.4344L414.51105,735.6105L510.29486,735.7857Q510.25732,756.27356,510.2199,776.76074Q414.43616,776.5862,318.653,776.41077Q318.69058,755.92267,318.72803,735.4344"/> </g> <g style="fill:rgb(105,210,244); fill-opacity:1.0; stroke-linejoin: miter"> <path d="M296.47073,808.48444L296.47073,808.48444L336.28577,808.24255C337.35464,808.236,338.22644,809.09735,338.23297,810.16626L338.23297,810.16626L338.4546,846.4852C338.4611,847.554,337.59995,848.4259,336.53107,848.43243L336.53107,848.43243L296.71606,848.6764C296.20276,848.6795,295.7092,848.4786,295.344,848.11774C294.9788,847.7571,294.77194,847.2661,294.76877,846.7528L294.76877,846.7528L294.54706,810.4317C294.54395,809.9185,294.7448,809.4249,295.10562,809.05963C295.46637,808.6945,295.95743,808.4877,296.47073,808.48444L296.47073,808.48444 M296.49426,812.3554L298.41794,810.4081L298.63968,846.7291L296.69238,844.8056L336.50732,844.5616L334.58377,846.50885L334.3621,810.1898L336.30927,812.1135L296.49426,812.3554 Z"/> </g> <g style="fill:rgb(105,210,244); fill-opacity:1.0; stroke-linejoin: miter"> <path d="M296.8492,870.4916L296.8492,870.4916L336.6642,870.2497C337.7331,870.2431,338.60483,871.1045,338.61133,872.1734L338.61133,872.1734L338.83295,908.4922C338.8395,909.561,337.97836,910.43286,336.90945,910.4394L336.90945,910.4394L297.09445,910.68335C296.58112,910.6865,296.08762,910.48553,295.7224,910.12476C295.3572,909.764,295.1503,909.273,295.14716,908.7597L295.14716,908.7597L294.92554,872.43884C294.9224,871.9256,295.12326,871.43207,295.48404,871.0669C295.84482,870.70166,296.33588,870.49475,296.8492,870.4916L296.8492,870.4916 M296.8727,874.36255L298.7964,872.4152L299.018,908.7361L297.07074,906.8124L336.8857,906.5684L334.9622,908.51575L334.74057,872.19696L336.68768,874.12067L296.8727,874.36255 Z"/> </g> <g style="fill:rgb(105,210,244); fill-opacity:1.0; stroke-linejoin: miter"> <path d="M297.2276,932.49854L297.2276,932.49854L337.0426,932.2566C338.11142,932.2501,338.98322,933.1115,338.98975,934.1803L338.98975,934.1803L339.2114,970.4992C339.2179,971.56805,338.3567,972.4399,337.28784,972.4464L337.28784,972.4464L297.47284,972.6904C296.95953,972.69354,296.466,972.4927,296.10083,972.13184C295.73563,971.77106,295.52872,971.2801,295.5256,970.7668L295.5256,970.7668L295.30392,934.4458C295.30078,933.93256,295.50168,933.4391,295.86243,933.0738C296.22327,932.70856,296.71426,932.50165,297.2276,932.49854L297.2276,932.49854 M297.25113,936.3694L299.17477,934.4221L299.39642,970.74316L297.44916,968.81946L337.2641,968.57544L335.34058,970.52277L335.11893,934.204L337.0661,936.12744L297.25113,936.3694 Z"/> </g> <g style="fill:rgb(105,210,244); fill-opacity:1.0; stroke-linejoin: miter"> <path d="M297.60593,994.5055L297.60593,994.5055L337.42093,994.2634C338.4898,994.25684,339.36157,995.11816,339.3681,996.18713L339.3681,996.18713L339.58972,1032.506C339.59625,1033.5748,338.73505,1034.4467,337.66617,1034.4532L337.66617,1034.4532L297.8512,1034.6973C297.3379,1034.7004,296.84436,1034.4995,296.47916,1034.1388C296.11398,1033.7781,295.90707,1033.287,295.90393,1032.7737L295.90393,1032.7737L295.68225,996.45276C295.67914,995.93945,295.88004,995.4459,296.2408,995.0807C296.60156,994.71545,297.09265,994.50867,297.60593,994.5055L297.60593,994.5055 M297.62946,998.37646L299.5531,996.4292L299.77478,1032.75L297.82748,1030.8264L337.64243,1030.5824L335.71887,1032.5297L335.49725,996.2107L337.44443,998.1344L297.62946,998.37646 Z"/> </g> <g style="fill:rgb(105,210,244); fill-opacity:1.0; stroke-linejoin: miter"> <path d="M297.98434,1056.5126L297.98434,1056.5126L337.79935,1056.2705C338.8682,1056.264,339.74,1057.1254,339.74646,1058.1942L339.74646,1058.1942L339.96808,1094.5131C339.97464,1095.5818,339.11346,1096.4536,338.04456,1096.4601L338.04456,1096.4601L298.22955,1096.7043C297.71628,1096.7074,297.22275,1096.5063,296.8575,1096.1455C296.49234,1095.7848,296.2854,1095.2941,296.2823,1094.7806L296.2823,1094.7806L296.06067,1058.4597C296.05756,1057.9465,296.25848,1057.453,296.6192,1057.0878C296.97995,1056.7225,297.471,1056.5157,297.98434,1056.5126L297.98434,1056.5126 M298.00784,1060.3837L299.93152,1058.4363L300.15314,1094.7571L298.20584,1092.8334L338.0208,1092.5892L336.0973,1094.5366L335.87567,1058.2179L337.8228,1060.1414L298.00784,1060.3837 Z"/> </g> <g style="fill:rgb(159,198,217); fill-opacity:1.0; stroke-linejoin: miter"> <path d="M350.0546,820.3029L437.43793,819.76605L524.8212,819.2291Q524.8986,831.7862,524.97577,844.3432Q437.59244,844.8805,350.20898,845.418Q350.13177,832.8604,350.0546,820.3029"/> </g> <g style="fill:rgb(159,198,217); fill-opacity:1.0; stroke-linejoin: miter"> <path d="M350.42435,880.8923L525.19104,879.8183L525.34546,904.9324L350.5787,906.0071L350.42435,880.8923"/> </g> <g style="fill:rgb(159,198,217); fill-opacity:1.0; stroke-linejoin: miter"> <path d="M350.79407,941.48145L438.17743,940.94446L525.5608,940.40753Q525.63794,952.96466,525.7152,965.52167Q438.33188,966.059,350.94846,966.59644Q350.87128,954.0389,350.79407,941.48145"/> </g> <g style="fill:rgb(159,198,217); fill-opacity:1.0; stroke-linejoin: miter"> <path d="M351.1638,1002.07043L525.9305,1000.9966L526.08496,1026.1107L351.3182,1027.1855L351.1638,1002.07043"/> </g> <g style="fill:rgb(159,198,217); fill-opacity:1.0; stroke-linejoin: miter"> <path d="M351.53357,1062.66L438.91684,1062.1228L526.3002,1061.5859Q526.3774,1074.1431,526.4546,1086.6997Q439.07123,1087.2373,351.68796,1087.7749Q351.61075,1075.2174,351.53357,1062.66"/> </g> <g style="fill:rgb(225,225,225); fill-opacity:1.0; stroke-linejoin: miter"> <path d="M562.4816,1063.8065L478.3693,1063.6506C466.21057,1063.63,456.3384,1073.4656,456.31586,1085.6235L456.17017,1165.571L562.4816,1063.8065 Z"/> </g> <g style="fill:rgb(101,161,56); fill-opacity:1.0; stroke-linejoin: miter"> <path d="M314.09274,804.6024L314.0927,804.6025L306.7501,844.1848Q350.00845,819.35974,393.2668,794.53467Q356.12054,811.11865,318.9744,827.70264L314.09274,804.6024"/> </g> <g style="fill:rgb(101,161,56); fill-opacity:1.0; stroke-linejoin: miter"> <path d="M314.46777,866.049L307.12506,905.63116L393.64166,855.981L319.34937,889.1492L314.46777,866.049"/> </g> <g style="fill:rgb(101,161,56); fill-opacity:1.0; stroke-linejoin: miter"> <path d="M314.8427,927.49536L311.1714,947.2865L307.50003,967.0776Q350.7584,942.2526,394.01666,917.4275Q356.8705,934.0116,319.72433,950.5956L314.8427,927.49536"/> </g> <g style="fill:rgb(101,161,56); fill-opacity:1.0; stroke-linejoin: miter"> <path d="M315.2177,988.94165L307.875,1028.524L394.3916,978.8738L320.09933,1012.0419L315.2177,988.94165"/> </g> <g style="fill:rgb(101,161,56); fill-opacity:1.0; stroke-linejoin: miter"> <path d="M315.59268,1050.3881L311.92133,1070.1794L308.24994,1089.9706Q351.50833,1065.1454,394.7666,1040.3203Q357.62045,1056.9043,320.47437,1073.4884Q318.03348,1061.9384,315.59268,1050.3881"/> </g> </g> </svg>